# xmcd
# 
# Track frame offsets:
#     150
#     20397
#     66033
#     87571
#     120693
#     144059
#     162188
#     187228
# 
# Disc length: 2821
# 
# Revision: 3
# Processed by: cddbd v1.5.2PL0 Copyright (c) Steve Scherf et al.
# Submitted via: fre:ac v1.0.27
# 
DISCID=670b0308
DTITLE=Iron Maiden - '2013″Maiden England'88″ Disc 2
DYEAR=2013
DGENRE=Heavy Metal
TTITLE0=The Clairvoyant
TTITLE1=Seventh Son Of A Seventh Son
TTITLE2=The Number Of The Beast
TTITLE3=Hallowed Be Thy Name
TTITLE4=Iron Maiden
TTITLE5=Run To The Hills
TTITLE6=Running Free
TTITLE7=Sanctuary
EXTD=
EXTT0=
EXTT1=
EXTT2=
EXTT3=
EXTT4=
EXTT5=
EXTT6=
EXTT7=
PLAYORDER=
